<mxfile host="app.diagrams.net" modified="2023-05-19T01:36:52.672Z" agent="Mozilla/5.0 (Macintosh; Intel Mac OS X 10_15_7) AppleWebKit/537.36 (KHTML, like Gecko) Chrome/112.0.0.0 Safari/537.36" etag="ELzON3ktrW7bcPg7PQ0Z" version="21.3.0" type="device" pages="2">
  <diagram name="페이지-1" id="DrPJC5VK7k4cFHWqK14F">
    <mxGraphModel dx="1044" dy="1043" grid="1" gridSize="10" guides="1" tooltips="1" connect="1" arrows="1" fold="1" page="1" pageScale="1" pageWidth="1169" pageHeight="827" math="0" shadow="0">
      <root>
        <mxCell id="0" />
        <mxCell id="1" parent="0" />
        <mxCell id="q-2FpiohPXskWqUHKV-s-8" value="" style="ellipse;whiteSpace=wrap;html=1;aspect=fixed;fontStyle=1;fillColor=#E6E6E6;" vertex="1" parent="1">
          <mxGeometry x="330" y="260" width="240" height="240" as="geometry" />
        </mxCell>
        <mxCell id="q-2FpiohPXskWqUHKV-s-9" style="edgeStyle=orthogonalEdgeStyle;rounded=0;orthogonalLoop=1;jettySize=auto;html=1;exitX=1;exitY=0.5;exitDx=0;exitDy=0;entryX=0;entryY=0.5;entryDx=0;entryDy=0;fontStyle=1" edge="1" parent="1" source="q-2FpiohPXskWqUHKV-s-1" target="q-2FpiohPXskWqUHKV-s-8">
          <mxGeometry relative="1" as="geometry" />
        </mxCell>
        <mxCell id="q-2FpiohPXskWqUHKV-s-1" value="" style="rounded=0;whiteSpace=wrap;html=1;fontStyle=1" vertex="1" parent="1">
          <mxGeometry x="210" y="360" width="60" height="40" as="geometry" />
        </mxCell>
        <mxCell id="q-2FpiohPXskWqUHKV-s-2" value="" style="ellipse;whiteSpace=wrap;html=1;aspect=fixed;fillColor=#333333;fontStyle=1" vertex="1" parent="1">
          <mxGeometry x="230" y="370" width="20" height="20" as="geometry" />
        </mxCell>
        <mxCell id="q-2FpiohPXskWqUHKV-s-4" value="23" style="rounded=0;whiteSpace=wrap;html=1;fillColor=#f5f5f5;fontColor=#333333;strokeColor=#666666;fontStyle=1" vertex="1" parent="1">
          <mxGeometry x="400" y="330" width="120" height="40" as="geometry" />
        </mxCell>
        <mxCell id="q-2FpiohPXskWqUHKV-s-5" value="94" style="rounded=0;whiteSpace=wrap;html=1;fillColor=#f5f5f5;fontColor=#333333;strokeColor=#666666;fontStyle=1" vertex="1" parent="1">
          <mxGeometry x="400" y="390" width="120" height="40" as="geometry" />
        </mxCell>
        <mxCell id="q-2FpiohPXskWqUHKV-s-6" value="x" style="text;html=1;strokeColor=none;fillColor=none;align=center;verticalAlign=middle;whiteSpace=wrap;rounded=0;fontStyle=1" vertex="1" parent="1">
          <mxGeometry x="360" y="330" width="40" height="40" as="geometry" />
        </mxCell>
        <mxCell id="q-2FpiohPXskWqUHKV-s-7" value="y" style="text;html=1;strokeColor=none;fillColor=none;align=center;verticalAlign=middle;whiteSpace=wrap;rounded=0;fontStyle=1" vertex="1" parent="1">
          <mxGeometry x="360" y="390" width="40" height="40" as="geometry" />
        </mxCell>
        <mxCell id="q-2FpiohPXskWqUHKV-s-10" value="originOne" style="text;html=1;strokeColor=none;fillColor=none;align=center;verticalAlign=middle;whiteSpace=wrap;rounded=0;fontStyle=1" vertex="1" parent="1">
          <mxGeometry x="140" y="365" width="60" height="30" as="geometry" />
        </mxCell>
        <mxCell id="q-2FpiohPXskWqUHKV-s-12" value="A Point object" style="text;html=1;strokeColor=none;fillColor=none;align=center;verticalAlign=middle;whiteSpace=wrap;rounded=0;fontStyle=1" vertex="1" parent="1">
          <mxGeometry x="350" y="220" width="200" height="40" as="geometry" />
        </mxCell>
      </root>
    </mxGraphModel>
  </diagram>
  <diagram id="riPvSZze_l_9o02yKyXL" name="페이지-2">
    <mxGraphModel dx="854" dy="1043" grid="1" gridSize="10" guides="1" tooltips="1" connect="1" arrows="1" fold="1" page="1" pageScale="1" pageWidth="1169" pageHeight="827" math="0" shadow="0">
      <root>
        <mxCell id="0" />
        <mxCell id="1" parent="0" />
        <mxCell id="Xu8lHJd8fOWo_lYSHPK7-3" value="" style="rounded=0;whiteSpace=wrap;html=1;fontStyle=1" vertex="1" parent="1">
          <mxGeometry x="340" y="60" width="60" height="40" as="geometry" />
        </mxCell>
        <mxCell id="Xu8lHJd8fOWo_lYSHPK7-1" value="" style="ellipse;whiteSpace=wrap;html=1;aspect=fixed;fontStyle=1;fillColor=#E6E6E6;" vertex="1" parent="1">
          <mxGeometry x="460" y="100" width="240" height="240" as="geometry" />
        </mxCell>
        <mxCell id="Xu8lHJd8fOWo_lYSHPK7-2" style="edgeStyle=orthogonalEdgeStyle;rounded=0;orthogonalLoop=1;jettySize=auto;html=1;exitX=1;exitY=0.5;exitDx=0;exitDy=0;entryX=0.071;entryY=0.25;entryDx=0;entryDy=0;fontStyle=1;entryPerimeter=0;" edge="1" parent="1" source="Xu8lHJd8fOWo_lYSHPK7-4" target="Xu8lHJd8fOWo_lYSHPK7-1">
          <mxGeometry relative="1" as="geometry">
            <mxPoint x="460" y="140" as="targetPoint" />
            <Array as="points">
              <mxPoint x="420" y="80" />
              <mxPoint x="420" y="160" />
            </Array>
          </mxGeometry>
        </mxCell>
        <mxCell id="Xu8lHJd8fOWo_lYSHPK7-4" value="" style="ellipse;whiteSpace=wrap;html=1;aspect=fixed;fillColor=#333333;fontStyle=1" vertex="1" parent="1">
          <mxGeometry x="360" y="70" width="20" height="20" as="geometry" />
        </mxCell>
        <mxCell id="Xu8lHJd8fOWo_lYSHPK7-5" value="23" style="rounded=0;whiteSpace=wrap;html=1;fillColor=#f5f5f5;fontColor=#333333;strokeColor=#666666;fontStyle=1" vertex="1" parent="1">
          <mxGeometry x="530" y="170" width="120" height="40" as="geometry" />
        </mxCell>
        <mxCell id="Xu8lHJd8fOWo_lYSHPK7-6" value="94" style="rounded=0;whiteSpace=wrap;html=1;fillColor=#f5f5f5;fontColor=#333333;strokeColor=#666666;fontStyle=1" vertex="1" parent="1">
          <mxGeometry x="530" y="230" width="120" height="40" as="geometry" />
        </mxCell>
        <mxCell id="Xu8lHJd8fOWo_lYSHPK7-7" value="x" style="text;html=1;strokeColor=none;fillColor=none;align=center;verticalAlign=middle;whiteSpace=wrap;rounded=0;fontStyle=1" vertex="1" parent="1">
          <mxGeometry x="490" y="170" width="40" height="40" as="geometry" />
        </mxCell>
        <mxCell id="Xu8lHJd8fOWo_lYSHPK7-8" value="y" style="text;html=1;strokeColor=none;fillColor=none;align=center;verticalAlign=middle;whiteSpace=wrap;rounded=0;fontStyle=1" vertex="1" parent="1">
          <mxGeometry x="490" y="230" width="40" height="40" as="geometry" />
        </mxCell>
        <mxCell id="Xu8lHJd8fOWo_lYSHPK7-9" value="originOne" style="text;html=1;strokeColor=none;fillColor=none;align=center;verticalAlign=middle;whiteSpace=wrap;rounded=0;fontStyle=1" vertex="1" parent="1">
          <mxGeometry x="270" y="65" width="60" height="30" as="geometry" />
        </mxCell>
        <mxCell id="Xu8lHJd8fOWo_lYSHPK7-10" value="A Point object" style="text;html=1;strokeColor=none;fillColor=none;align=center;verticalAlign=middle;whiteSpace=wrap;rounded=0;fontStyle=1" vertex="1" parent="1">
          <mxGeometry x="485" y="60" width="200" height="40" as="geometry" />
        </mxCell>
        <mxCell id="Xu8lHJd8fOWo_lYSHPK7-12" value="" style="ellipse;whiteSpace=wrap;html=1;aspect=fixed;fontStyle=1;fillColor=#E6E6E6;" vertex="1" parent="1">
          <mxGeometry x="240" y="280" width="240" height="240" as="geometry" />
        </mxCell>
        <mxCell id="Xu8lHJd8fOWo_lYSHPK7-13" value="100" style="rounded=0;whiteSpace=wrap;html=1;fillColor=#f5f5f5;fontColor=#333333;strokeColor=#666666;fontStyle=1" vertex="1" parent="1">
          <mxGeometry x="310" y="370" width="120" height="40" as="geometry" />
        </mxCell>
        <mxCell id="Xu8lHJd8fOWo_lYSHPK7-14" value="200" style="rounded=0;whiteSpace=wrap;html=1;fillColor=#f5f5f5;fontColor=#333333;strokeColor=#666666;fontStyle=1" vertex="1" parent="1">
          <mxGeometry x="310" y="430" width="120" height="40" as="geometry" />
        </mxCell>
        <mxCell id="Xu8lHJd8fOWo_lYSHPK7-15" value="width" style="text;html=1;strokeColor=none;fillColor=none;align=center;verticalAlign=middle;whiteSpace=wrap;rounded=0;fontStyle=1" vertex="1" parent="1">
          <mxGeometry x="270" y="370" width="40" height="40" as="geometry" />
        </mxCell>
        <mxCell id="Xu8lHJd8fOWo_lYSHPK7-16" value="height" style="text;html=1;strokeColor=none;fillColor=none;align=center;verticalAlign=middle;whiteSpace=wrap;rounded=0;fontStyle=1" vertex="1" parent="1">
          <mxGeometry x="270" y="430" width="40" height="40" as="geometry" />
        </mxCell>
        <mxCell id="Xu8lHJd8fOWo_lYSHPK7-22" value="" style="rounded=0;whiteSpace=wrap;html=1;fontStyle=1" vertex="1" parent="1">
          <mxGeometry x="340" y="310" width="60" height="40" as="geometry" />
        </mxCell>
        <mxCell id="c4gxi_8E2vJccLUiYfJd-2" style="edgeStyle=orthogonalEdgeStyle;rounded=0;orthogonalLoop=1;jettySize=auto;html=1;exitX=1;exitY=0.5;exitDx=0;exitDy=0;entryX=0;entryY=0.5;entryDx=0;entryDy=0;" edge="1" parent="1" source="Xu8lHJd8fOWo_lYSHPK7-23" target="Xu8lHJd8fOWo_lYSHPK7-1">
          <mxGeometry relative="1" as="geometry" />
        </mxCell>
        <mxCell id="Xu8lHJd8fOWo_lYSHPK7-23" value="" style="ellipse;whiteSpace=wrap;html=1;aspect=fixed;fillColor=#333333;fontStyle=1" vertex="1" parent="1">
          <mxGeometry x="360" y="320" width="20" height="20" as="geometry" />
        </mxCell>
        <mxCell id="Xu8lHJd8fOWo_lYSHPK7-24" value="origin" style="text;html=1;strokeColor=none;fillColor=none;align=center;verticalAlign=middle;whiteSpace=wrap;rounded=0;fontStyle=1" vertex="1" parent="1">
          <mxGeometry x="280" y="315" width="60" height="30" as="geometry" />
        </mxCell>
        <mxCell id="c4gxi_8E2vJccLUiYfJd-1" value="A Rectangle object" style="text;html=1;strokeColor=none;fillColor=none;align=center;verticalAlign=middle;whiteSpace=wrap;rounded=0;fontStyle=1" vertex="1" parent="1">
          <mxGeometry x="260" y="240" width="200" height="40" as="geometry" />
        </mxCell>
      </root>
    </mxGraphModel>
  </diagram>
</mxfile>
